<?xml version="1.0" standalone="no"?><!DOCTYPE svg PUBLIC "-//W3C//DTD SVG 1.1//EN" "http://www.w3.org/Graphics/SVG/1.1/DTD/svg11.dtd"><svg t="1755068227085" class="icon" viewBox="0 0 1024 1024" version="1.1" xmlns="http://www.w3.org/2000/svg" p-id="10330" xmlns:xlink="http://www.w3.org/1999/xlink" width="200" height="200"><path d="M609.856 81.952l3.477333 1.952 250.741334 144.768a160 160 0 0 1 79.957333 134.837333l0.042667 3.733334v289.525333a160 160 0 0 1-76.8 136.661333l-3.2 1.898667L613.333333 940.096a160 160 0 0 1-156.522666 1.952l-3.477334-1.952-250.741333-144.768a160 160 0 0 1-79.957333-134.837333l-0.042667-3.733334V367.242667a160 160 0 0 1 76.8-136.661334l3.2-1.898666L453.333333 83.904a160 160 0 0 1 156.522667-1.952zM228.394667 330.666667a32 32 0 0 0 10.048 42.688l1.664 1.024L501.333333 525.205333V800a32 32 0 0 0 30.122667 31.946667L533.333333 832a32 32 0 0 0 31.946667-30.122667L565.333333 800V523.530667l147.52-85.152a32 32 0 0 0 12.64-41.994667L724.565333 394.666667a32 32 0 0 0-41.994666-12.64l-1.706667 0.928-148.96 85.984L272.106667 318.954667A32 32 0 0 0 228.394667 330.666667zM885.333333 580.778667a16 16 0 0 0-16 16v32.373333l-0.053333 3.52a125.269333 125.269333 0 0 1-62.581333 104.970667l-69.173334 39.936a16 16 0 0 0 16 27.722666l69.173334-39.946666A157.269333 157.269333 0 0 0 901.333333 629.152v-32.373333l-0.074666-1.536A16 16 0 0 0 885.333333 580.778667zM773.226667 329.621333a32 32 0 1 0 32 55.424 32 32 0 0 0-32-55.424z" p-id="10331" fill="#155aef"></path></svg>