<?xml version="1.0" standalone="no"?><!DOCTYPE svg PUBLIC "-//W3C//DTD SVG 1.1//EN" "http://www.w3.org/Graphics/SVG/1.1/DTD/svg11.dtd"><svg t="1760408961590" class="icon" viewBox="0 0 1024 1024" version="1.1" xmlns="http://www.w3.org/2000/svg" p-id="13646" xmlns:xlink="http://www.w3.org/1999/xlink" width="200" height="200"><path d="M1024 512c0 282.760533-229.239467 512-512 512S0 794.760533 0 512s229.239467-512 512-512S1024 229.239467 1024 512zM364.288 752.4352l100.317867-83.2512L734.549333 669.184c21.623467 0 39.150933-34.577067 39.150933-56.200533L773.700267 356.061867c0-21.640533-17.527467-56.2176-39.150933-56.2176l-445.098667 0c-21.623467 0-39.150933 17.5104-39.150933 39.150933L250.299733 630.050133c0 21.623467 17.527467 39.133867 39.150933 39.133867l74.837333 0L364.288 752.4352zM410.487467 457.5232l-51.2 0 0 51.2 51.2 0L410.487467 457.5232zM537.070933 457.5232l-51.2 0 0 51.2 51.2 0L537.070933 457.5232zM663.6544 457.5232l-51.2 0 0 51.2 51.2 0L663.6544 457.5232z" fill="#14b8a6" p-id="13647"></path></svg>