<?xml version="1.0" standalone="no"?><!DOCTYPE svg PUBLIC "-//W3C//DTD SVG 1.1//EN" "http://www.w3.org/Graphics/SVG/1.1/DTD/svg11.dtd"><svg t="1760409887272" class="icon" viewBox="0 0 1024 1024" version="1.1" xmlns="http://www.w3.org/2000/svg" p-id="28958" xmlns:xlink="http://www.w3.org/1999/xlink" width="200" height="200"><path d="M108.117333 512.085333a403.968 403.882667 90 1 0 807.765334 0 403.968 403.882667 90 1 0-807.765334 0Z" fill="#FFFFFF" p-id="28959"></path><path d="M174.634667 370.816a367.402667 367.402667 0 0 0 7.552 299.989333c41.173333 86.954667 118.186667 155.008 208.64 187.093334-24.618667-130.816-55.04-260.608-79.914667-391.424-7.722667-48.341333-6.314667-104.533333 29.354667-142.208 22.656-27.648 59.733333-34.218667 92.586666-42.069334-34.816-10.368-71.253333-11.178667-107.221333-9.642666 3.370667-5.546667 9.045333-10.922667 16.384-15.488 7.296-4.608 16.256-8.405333 23.850667-10.837334-12.458667-4.949333-24.874667-9.813333-37.290667-14.592 64.426667-15.914667 137.130667 3.072 184.661333 49.749334 21.845333 11.178667 48.384 15.658667 64.682667 36.181333 42.24 49.834667 64.938667 116.906667 57.386667 182.272-18.901333 4.650667-38.272 6.826667-57.6 8.021333a109.738667 109.738667 0 0 0-85.418667 45.952c-4.778667 21.205333 8.277333 41.898667 24.234667 54.826667-7.722667 50.688 9.557333 100.010667 27.093333 146.688 12.245333 30.293333 48.085333 98.986667 54.784 112.085333 97.493333-22.912 183.381333-89.088 231.978667-176.341333 40.96-71.765333 55.338667-157.781333 41.685333-239.104-16.64-103.296-80.469333-197.589333-170.026667-251.648-90.112-55.722667-204.970667-68.608-305.365333-34.944-98.986667 32.298667-182.016 109.354667-222.037333 205.44z" fill="#DE5833" p-id="28960"></path><path d="M398.293333 100.992C474.752 80.213333 557.525333 78.933333 633.173333 104.064c7.509333 1.792 14.805333 4.224 21.845334 7.168 12.245333 3.84 24.874667 7.125333 35.626666 14.421333 96.341333 42.112 174.677333 124.330667 214.4 221.696a420.778667 420.778667 0 0 1 14.506667 290.048c-36.48 122.453333-132.010667 225.322667-251.008 271.744-161.962667 65.706667-361.898667 19.2-475.904-113.962666C147.754667 744.362667 113.962667 683.221333 98.858667 616.874667c-21.589333-83.370667-17.792-174.933333 14.592-255.104 5.205333-17.408 13.568-33.664 21.76-49.792C189.013333 209.706667 286.464 130.944 398.250667 100.992m61.312 21.76c-102.442667 13.312-198.826667 69.12-260.821334 151.893333C133.888 358.826667 106.453333 470.357333 123.733333 575.232c16.64 108.074667 81.706667 206.976 173.226667 266.368a392.789333 392.789333 0 0 0 267.093333 60.288c107.178667-13.824 207.530667-74.581333 269.141334-163.498667 60.885333-85.461333 84.394667-195.968 64.682666-298.922666-20.736-114.56-96.298667-217.173333-198.485333-272.426667A393.685333 393.685333 0 0 0 459.605333 122.794667z" fill="#DE5833" p-id="28961"></path><path d="M545.28 371.626667c14.506667-18.346667 39.338667-20.608 56.405333-4.394667-18.986667-2.645333-38.4-3.754667-56.362666 4.394667z m-191.061333 28.629333c-0.170667-33.066667 37.717333-41.6 62.677333-29.994667-24.874667-0.597333-50.602667 6.144-62.72 29.994667z" fill="#2E4F8E" p-id="28962"></path><path d="M544.213333 437.162667a42.666667 42.666667 0 1 0 85.333334 0 42.666667 42.666667 0 1 0-85.333334 0Z" fill="#2E4F8E" p-id="28963"></path><path d="M401.322667 427.562667c23.893333-7.978667 43.434667 23.381333 27.946666 42.112-10.666667 15.104-35.754667 12.928-44.117333-3.2-9.557333-14.165333 0-35.2 16.170667-38.912" fill="#2E4F8E" p-id="28964"></path><path d="M414.378667 435.797333c8.106667-2.688 14.762667 7.936 9.472 14.293334-3.626667 5.12-12.117333 4.352-14.933334-1.109334-3.285333-4.778667 0-11.946667 5.461334-13.184M594.176 422.101333c6.101333-2.048 11.093333 5.930667 7.125333 10.666667-2.688 3.84-9.088 3.285333-11.221333-0.810667-2.432-3.584 0-8.96 4.096-9.856" fill="#FFFFFF" p-id="28965"></path><path d="M635.306667 499.84c41.088-7.594667 79.744-25.088 120.917333-31.744 13.696 1.664 38.741333 2.218667 40.149333 19.626667-16.298667 21.717333-44.586667 28.586667-68.309333 39.082666-41.685333 14.122667-83.498667 36.437333-128.853333 29.781334-13.397333-0.042667-33.962667-5.717333-38.826667 12.032-9.301333 17.152 9.386667 31.872 24.234667 35.712 42.453333 12.245333 87.338667 3.498667 129.365333-6.357334 14.549333-2.133333 29.994667-8.533333 44.586667-3.114666 10.666667 12.842667-9.856 22.144-18.432 28.501333-70.912 39.04-154.581333 16.597333-223.616-14.72-15.957333-12.928-29.013333-33.621333-24.234667-54.826667a109.738667 109.738667 0 0 1 85.418667-45.952 319.317333 319.317333 0 0 0 57.6-8.021333z" fill="#FDD20A" p-id="28966"></path><path d="M567.253333 758.485333c22.826667-15.658667 55.466667-30.208 82.261334-38.357333 11.306667 38.741333 13.141333 79.701333 4.992 119.168-30.165333-3.157333-52.352-6.869333-80.085334-18.602667-19.328 14.293333-43.989333 18.346667-74.069333 12.16-22.442667 11.392-44.672 25.770667-70.4 27.690667-10.453333-38.016-12.757333-85.76-8.618667-123.178667 30.805333 0.085333 50.474667 14.250667 77.994667 26.026667 20.48-14.72 43.093333-16.384 67.925333-4.906667z" fill="#65BC46" p-id="28967"></path></svg>